<svg width="200" height="200" viewBox="0 0 200 200" fill="none" xmlns="http://www.w3.org/2000/svg">
<g filter="url(#filter0_d_1004_2733)">
<rect x="49" y="69" width="101" height="62" rx="10" fill="white"/>
</g>
<path fill-rule="evenodd" clip-rule="evenodd" d="M183.333 100C183.333 146.023 146.023 183.333 100 183.333C53.9762 183.333 16.6666 146.023 16.6666 100C16.6666 53.9763 53.9762 16.6667 100 16.6667C146.023 16.6667 183.333 53.9763 183.333 100ZM133.586 74.7473C136.027 77.1881 136.027 81.1454 133.586 83.5859L91.9191 125.253C89.4783 127.693 85.5216 127.693 83.0805 125.253L66.4139 108.586C63.9731 106.145 63.9731 102.188 66.4139 99.7476C68.8546 97.3067 72.812 97.3067 75.2527 99.7476L87.5 111.994L106.123 93.3709L124.747 74.7473C127.188 72.3066 131.145 72.3066 133.586 74.7473Z" fill="#6FB162"/>
<defs>
<filter id="filter0_d_1004_2733" x="45" y="69" width="109" height="70" filterUnits="userSpaceOnUse" color-interpolation-filters="sRGB">
<feFlood flood-opacity="0" result="BackgroundImageFix"/>
<feColorMatrix in="SourceAlpha" type="matrix" values="0 0 0 0 0 0 0 0 0 0 0 0 0 0 0 0 0 0 127 0" result="hardAlpha"/>
<feOffset dy="4"/>
<feGaussianBlur stdDeviation="2"/>
<feComposite in2="hardAlpha" operator="out"/>
<feColorMatrix type="matrix" values="0 0 0 0 0 0 0 0 0 0 0 0 0 0 0 0 0 0 0.25 0"/>
<feBlend mode="normal" in2="BackgroundImageFix" result="effect1_dropShadow_1004_2733"/>
<feBlend mode="normal" in="SourceGraphic" in2="effect1_dropShadow_1004_2733" result="shape"/>
</filter>
</defs>
</svg>
