<svg width="33" height="18" viewBox="0 0 33 18" fill="none" xmlns="http://www.w3.org/2000/svg">
<path d="M32.5614 7.03618C28.0725 2.95704 22.4054 0.89133 16.717 0.836041C16.6702 0.835002 16.6231 0.834893 16.5761 0.834455C16.5446 0.834346 16.5131 0.833416 16.4816 0.833416C16.4763 0.833416 16.4711 0.833252 16.4657 0.833252C16.3757 0.833252 16.2861 0.83451 16.1967 0.836588C10.5261 0.903744 4.86928 2.96858 0.372592 7.03399C-0.146593 7.50338 -0.1199 8.24171 0.432087 8.68315C0.98414 9.12459 1.85251 9.10189 2.3717 8.63256C4.13598 7.03749 6.09424 5.7916 8.16101 4.89478C7.33457 6.10092 6.86073 7.50327 6.86073 9.00001C6.86073 13.5107 11.1607 17.1667 16.4657 17.1667C21.7708 17.1667 26.0708 13.5106 26.0708 8.99996C26.0708 7.49774 25.5933 6.09058 24.7612 4.88144C26.8334 5.77886 28.7944 7.02831 30.5574 8.63038C31.0752 9.10085 31.9435 9.12541 32.4968 8.68523C33.0503 8.24499 33.0791 7.50671 32.5614 7.03618ZM23.3265 8.99996C23.3265 12.222 20.2553 14.8333 16.4658 14.8333C12.6763 14.8333 9.60504 12.222 9.60504 8.99996C9.60504 5.8341 12.5703 3.25799 16.2685 3.16917C16.3391 3.16846 16.4096 3.16677 16.4803 3.16677C16.4925 3.16677 16.5047 3.1671 16.517 3.16715C16.5599 3.16721 16.6028 3.16824 16.6458 3.16863C20.3521 3.24978 23.3265 5.82912 23.3265 8.99996Z" fill="#B5B5B5"/>
<path d="M16.4659 6.66655C17.2237 6.66655 17.838 6.14423 17.838 5.4999C17.838 4.85557 17.2237 4.33325 16.4659 4.33325C13.4344 4.33325 10.9773 6.42242 10.9773 8.9999C10.9773 11.5774 13.4344 13.6665 16.4659 13.6665C19.4973 13.6665 21.9544 11.5774 21.9544 8.9999C21.9544 8.35557 21.3401 7.83325 20.5823 7.83325C19.8245 7.83325 19.2102 8.35557 19.2102 8.9999C19.2102 10.2887 17.9817 11.3333 16.4659 11.3333C14.95 11.3333 13.7215 10.2887 13.7215 8.9999C13.7215 7.71108 14.95 6.66655 16.4659 6.66655Z" fill="#B5B5B5"/>
</svg>
