<svg width="33" height="31" viewBox="0 0 33 31" fill="none" xmlns="http://www.w3.org/2000/svg">
<path fill-rule="evenodd" clip-rule="evenodd" d="M22.3338 19.6075C22.737 19.9853 22.737 20.6053 22.3338 20.9832C21.9316 21.361 21.2778 21.361 20.8746 20.9832L16.5062 16.8757L12.1069 21.0121C11.7006 21.3899 11.0427 21.3899 10.6363 21.0121C10.2311 20.6246 10.2311 20.0047 10.6363 19.6269L15.0356 15.4903L10.6672 11.3925C10.264 11.0147 10.264 10.3947 10.6672 10.0168C11.0684 9.63903 11.7222 9.63903 12.1254 10.0168L16.4938 14.1243L20.9261 9.95878C21.3324 9.58097 21.9893 9.58097 22.3956 9.95878C22.8009 10.3463 22.8009 10.9565 22.3956 11.344L17.9644 15.5097L22.3338 19.6075ZM16.5 0C7.38684 0 0 6.93625 0 15.5C0 24.0637 7.38684 31 16.5 31C25.6132 31 33 24.0637 33 15.5C33 6.93625 25.6132 0 16.5 0Z" fill="#B16262"/>
</svg>
