<svg width="34" height="34" viewBox="0 0 34 34" fill="none" xmlns="http://www.w3.org/2000/svg">
<path fill-rule="evenodd" clip-rule="evenodd" d="M33.3333 16.6667C33.3333 25.8713 25.8713 33.3333 16.6667 33.3333C7.46192 33.3333 0 25.8713 0 16.6667C0 7.46192 7.46192 0 16.6667 0C25.8713 0 33.3333 7.46192 33.3333 16.6667ZM23.3838 11.6161C23.872 12.1043 23.872 12.8957 23.3838 13.3838L15.0505 21.7172C14.5623 22.2053 13.771 22.2053 13.2828 21.7172L9.94945 18.3838C9.4613 17.8957 9.4613 17.1043 9.94945 16.6162C10.4376 16.128 11.2291 16.128 11.7172 16.6162L14.1667 19.0655L17.8913 15.3408L21.6162 11.6161C22.1043 11.128 22.8957 11.128 23.3838 11.6161Z" fill="#6FB162"/>
</svg>
