<svg width="23" height="23" viewBox="0 0 23 23" fill="none" xmlns="http://www.w3.org/2000/svg">
<g clip-path="url(#clip0_1004_3317)">
<path d="M1.86865 5.39062H10.3212V3.59375H1.86865C1.39209 3.59375 0.935049 3.78306 0.59807 4.12004C0.26109 4.45702 0.0717773 4.91406 0.0717773 5.39062V17.6094C0.0717773 18.0859 0.26109 18.543 0.59807 18.88C0.935049 19.2169 1.39209 19.4062 1.86865 19.4062H10.3212V17.6094H1.86865V5.39062Z" fill="black"/>
<path d="M22.1374 10.0625L16.3874 6.12378L15.3668 7.56128L19.7943 10.58H6.77051V12.3913H19.8086L15.3811 15.4244L16.4018 16.8619L22.1374 12.9375C22.3632 12.772 22.5468 12.5556 22.6734 12.3058C22.7999 12.0561 22.8659 11.78 22.8659 11.5C22.8659 11.22 22.7999 10.944 22.6734 10.6942C22.5468 10.4445 22.3632 10.2281 22.1374 10.0625Z" fill="black"/>
</g>
<defs>
<clipPath id="clip0_1004_3317">
<rect width="23" height="23" fill="white"/>
</clipPath>
</defs>
</svg>
