<svg width="44" height="40" viewBox="0 0 44 40" fill="none" xmlns="http://www.w3.org/2000/svg">
<path d="M14.9823 29.3933L22.1924 24.4128L29.4026 29.3933L26.6988 21.3101L33.9089 16.6562H25.0765L22.1924 8.16477L19.3084 16.6562H10.476L17.6861 21.3101L14.9823 29.3933ZM22.1924 35.9252C19.6989 35.9252 17.3556 35.4965 15.1626 34.6392C12.9695 33.7819 11.0618 32.6184 9.43952 31.1488C7.81724 29.6791 6.53294 27.9509 5.58661 25.9641C4.64028 23.9773 4.16711 21.8545 4.16711 19.5955C4.16711 17.3366 4.64028 15.2137 5.58661 13.227C6.53294 11.2402 7.81724 9.51196 9.43952 8.04229C11.0618 6.57262 12.9695 5.40914 15.1626 4.55183C17.3556 3.69452 19.6989 3.26587 22.1924 3.26587C24.6859 3.26587 27.0292 3.69452 29.2223 4.55183C31.4154 5.40914 33.3231 6.57262 34.9453 8.04229C36.5676 9.51196 37.8519 11.2402 38.7982 13.227C39.7446 15.2137 40.2177 17.3366 40.2177 19.5955C40.2177 21.8545 39.7446 23.9773 38.7982 25.9641C37.8519 27.9509 36.5676 29.6791 34.9453 31.1488C33.3231 32.6184 31.4154 33.7819 29.2223 34.6392C27.0292 35.4965 24.6859 35.9252 22.1924 35.9252Z" fill="#E6730F"/>
</svg>
