<svg width="44" height="40" viewBox="0 0 44 40" fill="none" xmlns="http://www.w3.org/2000/svg">
<path d="M14.6279 29.3933L21.8381 24.4128L29.0482 29.3933L26.3444 21.3101L33.5545 16.6562H24.7221L21.8381 8.16477L18.954 16.6562H10.1216L17.3317 21.3101L14.6279 29.3933ZM21.8381 35.9252C19.3446 35.9252 17.0013 35.4965 14.8082 34.6392C12.6151 33.7819 10.7074 32.6184 9.08515 31.1488C7.46287 29.6791 6.17857 27.9509 5.23224 25.9641C4.28591 23.9773 3.81274 21.8545 3.81274 19.5955C3.81274 17.3366 4.28591 15.2137 5.23224 13.227C6.17857 11.2402 7.46287 9.51196 9.08515 8.04229C10.7074 6.57262 12.6151 5.40914 14.8082 4.55183C17.0013 3.69452 19.3446 3.26587 21.8381 3.26587C24.3316 3.26587 26.6749 3.69452 28.8679 4.55183C31.061 5.40914 32.9687 6.57262 34.591 8.04229C36.2132 9.51196 37.4976 11.2402 38.4439 13.227C39.3902 15.2137 39.8634 17.3366 39.8634 19.5955C39.8634 21.8545 39.3902 23.9773 38.4439 25.9641C37.4976 27.9509 36.2132 29.6791 34.591 31.1488C32.9687 32.6184 31.061 33.7819 28.8679 34.6392C26.6749 35.4965 24.3316 35.9252 21.8381 35.9252Z" fill="#E6B10F"/>
</svg>
