<svg width="44" height="40" viewBox="0 0 44 40" fill="none" xmlns="http://www.w3.org/2000/svg">
<path d="M15.1594 29.3933L22.3696 24.4128L29.5797 29.3933L26.8759 21.3101L34.086 16.6562H25.2536L22.3696 8.16477L19.4855 16.6562H10.6531L17.8632 21.3101L15.1594 29.3933ZM22.3696 35.9252C19.8761 35.9252 17.5328 35.4965 15.3397 34.6392C13.1466 33.7819 11.2389 32.6184 9.61664 31.1488C7.99436 29.6791 6.71006 27.9509 5.76373 25.9641C4.8174 23.9773 4.34424 21.8545 4.34424 19.5955C4.34424 17.3366 4.8174 15.2137 5.76373 13.227C6.71006 11.2402 7.99436 9.51196 9.61664 8.04229C11.2389 6.57262 13.1466 5.40914 15.3397 4.55183C17.5328 3.69452 19.8761 3.26587 22.3696 3.26587C24.8631 3.26587 27.2063 3.69452 29.3994 4.55183C31.5925 5.40914 33.5002 6.57262 35.1225 8.04229C36.7447 9.51196 38.029 11.2402 38.9754 13.227C39.9217 15.2137 40.3949 17.3366 40.3949 19.5955C40.3949 21.8545 39.9217 23.9773 38.9754 25.9641C38.029 27.9509 36.7447 29.6791 35.1225 31.1488C33.5002 32.6184 31.5925 33.7819 29.3994 34.6392C27.2063 35.4965 24.8631 35.9252 22.3696 35.9252Z" fill="#767676"/>
</svg>
