<svg width="44" height="35" viewBox="0 0 44 35" fill="none" xmlns="http://www.w3.org/2000/svg">
<path d="M20.2091 16.8575C19.6789 16.425 18.8084 16.4162 18.2647 16.838C17.721 17.2597 17.7099 17.9521 18.2401 18.3847L20.2091 16.8575ZM21.2198 20.8157C21.75 21.2482 22.6205 21.257 23.1643 20.8352C23.708 20.4135 23.719 19.7211 23.1888 19.2885L21.2198 20.8157ZM18.2401 21.7196C17.7099 22.1521 17.721 22.8445 18.2647 23.2663C18.8084 23.688 19.6789 23.6793 20.2091 23.2467L18.2401 21.7196ZM23.1888 20.8157C23.719 20.3832 23.708 19.6907 23.1643 19.269C22.6205 18.8472 21.75 18.856 21.2198 19.2885L23.1888 20.8157ZM26.1685 18.3847C26.6987 17.9521 26.6877 17.2597 26.144 16.838C25.6002 16.4162 24.7297 16.425 24.1995 16.8575L26.1685 18.3847ZM21.2198 19.2885C20.6896 19.7211 20.7008 20.4135 21.2444 20.8352C21.7882 21.257 22.6586 21.2482 23.1888 20.8157L21.2198 19.2885ZM24.1995 23.2467C24.7297 23.6793 25.6002 23.688 26.144 23.2663C26.6877 22.8445 26.6987 22.1521 26.1685 21.7196L24.1995 23.2467ZM23.1888 19.2885C22.6586 18.856 21.7882 18.8472 21.2444 19.269C20.7008 19.6907 20.6896 20.3832 21.2198 20.8157L23.1888 19.2885ZM25.354 8.02087C26.1134 8.02087 26.729 7.53118 26.729 6.92712C26.729 6.32307 26.1134 5.83337 25.354 5.83337V8.02087ZM19.3962 5.83337C18.6368 5.83337 18.0212 6.32307 18.0212 6.92712C18.0212 7.53118 18.6368 8.02087 19.3962 8.02087V5.83337ZM31.1418 10.9375C31.9012 10.9375 32.5168 10.4478 32.5168 9.84379C32.5168 9.23973 31.9012 8.75004 31.1418 8.75004V10.9375ZM13.2668 8.75004C12.5075 8.75004 11.8918 9.23973 11.8918 9.84379C11.8918 10.4478 12.5075 10.9375 13.2668 10.9375V8.75004ZM18.2401 18.3847L21.2198 20.8157L23.1888 19.2885L20.2091 16.8575L18.2401 18.3847ZM20.2091 23.2467L23.1888 20.8157L21.2198 19.2885L18.2401 21.7196L20.2091 23.2467ZM24.1995 16.8575L21.2198 19.2885L23.1888 20.8157L26.1685 18.3847L24.1995 16.8575ZM26.1685 21.7196L23.1888 19.2885L21.2198 20.8157L24.1995 23.2467L26.1685 21.7196ZM25.354 5.83337H19.3962V8.02087H25.354V5.83337ZM31.1418 8.75004H13.2668V10.9375H31.1418V8.75004ZM14.7558 13.8542H29.6528V11.6667H14.7558V13.8542ZM29.6528 13.8542C29.6731 13.8542 29.6961 13.8593 29.7212 13.8799C29.747 13.9007 29.7668 13.9325 29.7668 13.9752H32.5168C32.5168 12.7266 31.2672 11.6667 29.6528 11.6667V13.8542ZM29.7668 13.9752V23.698H32.5168V13.9752H29.7668ZM29.7668 23.698C29.7668 25.1337 28.3491 26.25 26.6731 26.25V28.4375C29.9331 28.4375 32.5168 26.2893 32.5168 23.698H29.7668ZM26.6731 26.25H17.7356V28.4375H26.6731V26.25ZM17.7356 26.25C16.9265 26.25 16.1432 25.9881 15.5602 25.5124L13.5912 27.0394C14.6843 27.9314 16.1743 28.4375 17.7356 28.4375V26.25ZM15.5602 25.5124C14.976 25.0358 14.6418 24.3837 14.6418 23.698H11.8918C11.8918 24.9461 12.4993 26.1487 13.5912 27.0394L15.5602 25.5124ZM14.6418 23.698V13.9752H11.8918V23.698H14.6418ZM14.6418 13.9752C14.6418 13.9325 14.6618 13.9007 14.6875 13.8799C14.7126 13.8593 14.7356 13.8542 14.7558 13.8542V11.6667C13.1415 11.6667 11.8918 12.7266 11.8918 13.9752H14.6418Z" fill="#B16262"/>
</svg>
