<svg width="111" height="113" viewBox="0 0 111 113" fill="none" xmlns="http://www.w3.org/2000/svg">
<g clip-path="url(#clip0_48_137)">
<path d="M93.2507 23.8091L71.8836 2.05349C70.936 1.08861 69.7627 0.62915 68.5894 0.62915H21.1847C18.6125 0.62915 16.4916 2.78863 16.4916 5.40757V81.4029C16.4916 84.0218 18.6125 86.1813 21.1847 86.1813H50.9903V108.167C50.9903 110.786 53.1112 112.945 55.6834 112.945C58.2556 112.945 60.3765 110.786 60.3765 108.396V86.2043H90.1822C92.7543 86.2043 94.6496 84.0448 94.6496 81.6556V27.1632C94.6722 25.9686 94.1984 24.774 93.2507 23.8091ZM73.5307 16.8023L82.3979 25.7388H73.5307V16.8023ZM85.7373 76.8772H60.3991V57.8554L64.3927 61.6C66.649 63.8973 70.0334 62.3122 70.7329 61.3703C72.38 59.4635 72.38 56.3621 70.5073 54.6851L58.7745 43.6809C56.9018 42.0039 54.0814 42.0039 52.4343 43.6809L40.7016 54.6851C38.8289 56.5918 38.8289 59.4635 40.476 61.3703C42.3487 63.277 45.1691 63.277 47.0418 61.6L51.0354 57.8554V76.8772H25.9003V10.186H64.1671V30.0119C64.1671 32.6308 66.288 34.7903 68.8602 34.7903H85.7598V76.8772H85.7373Z" fill="#2D9D8E"/>
</g>
<defs>
<clipPath id="clip0_48_137">
<rect width="110.31" height="112.316" fill="white" transform="translate(0.415894 0.62915)"/>
</clipPath>
</defs>
</svg>
